<svg xmlns="http://www.w3.org/2000/svg" viewBox="0 0 278 86">
  <defs>
    <style>
      .cls-1 {
        fill: #1d2c3c;
      }

      .cls-2 {
        fill: #fff;
        fill-rule: evenodd;
      }
    </style>
  </defs>
  <g id="Group_285" data-name="Group 285" transform="translate(-581 -3136)">
    <rect id="Rectangle_566" data-name="Rectangle 566" class="cls-1" width="278" height="86" transform="translate(581 3136)"/>
    <g id="LOGO" transform="translate(621.389 3158.23)">
      <path id="Path_252" data-name="Path 252" class="cls-2" d="M0,57.02V21.9H5.367V51.516H20.6v5.395ZM18.473,68.627a8.456,8.456,0,0,0,3,.518,7.058,7.058,0,0,0,3.869-1.008h0a10.558,10.558,0,0,0,2.834-3.215h0c.6-1.308,1.417-3.242,2.452-5.831L40.9,32.853H35.719L29.97,47.865l-1.5,4.768a45.958,45.958,0,0,0-1.662-4.85l-5.5-14.931H15.748l10.163,25.72a5.131,5.131,0,0,0-.327.981,20.221,20.221,0,0,1-1.362,3.106v.027h0a4.274,4.274,0,0,1-1.281,1.226,5.228,5.228,0,0,1-2.261.463,10.019,10.019,0,0,1-2.479-.354l-.49-.136.6,4.686Zm24.3-11.607h5.313V45.468c0-4.005.518-5.286,1.144-6.13a5.287,5.287,0,0,1,4.6-2.18,4.352,4.352,0,0,1,4.332,3.515,15.789,15.789,0,0,1,.463,4.468V57.02h5.231V43.942c0-4.714-.763-6.648-1.989-8.555a7.943,7.943,0,0,0-6.457-3.324A8.7,8.7,0,0,0,49.86,34a7.125,7.125,0,0,0-1.8,1.716c-.136.054-.381.381-.463.463V33.1H42.776Zm42.449-1.09V50.181c-2.861,1.907-5.04,2.507-6.73,2.507-4.087,0-7.275-3.188-7.275-7.792,0-4.577,3.133-7.656,7.111-7.656,1.662,0,3.9.463,6.839,2.561V33.97A14.7,14.7,0,0,0,78.2,31.981a12.3,12.3,0,0,0-8.446,3.569,13.729,13.729,0,0,0-3.978,9.318A12.686,12.686,0,0,0,78.2,57.7,17.037,17.037,0,0,0,85.225,55.93ZM105.823,45a7.181,7.181,0,1,0-7.111,7.656A7.352,7.352,0,0,0,105.823,45ZM86.369,45c0,7.22,5.5,13.024,12.233,13.024,6.839,0,12.424-5.8,12.424-13.024S105.469,31.981,98.6,31.981C91.873,31.981,86.369,37.812,86.369,45Z" transform="translate(0 -16.032)"/>
      <path id="Path_253" data-name="Path 253" class="cls-2" d="M413.338,19.3c-.409-.327-.817-.627-1.226-.926q-1.185-.9-2.452-1.716c-1.308-.872-2.67-1.689-4.032-2.452-1.934-1.09-3.923-2.071-5.94-2.97a67.668,67.668,0,0,0-9.046-3.27c-.79-.218-1.608-.436-2.425-.654h0L382.5,5.922h0c-1.934-.463-3.869-.872-5.831-1.226A78.814,78.814,0,0,0,366.23,3.579h0l-2.806-.136h0a93.864,93.864,0,0,0-12.07.272h0l-1.825.136h0A83.461,83.461,0,0,0,332.99,6.93a66.844,66.844,0,0,0-11.116,4.387h0l-8.473,4.3h0a74.044,74.044,0,0,1,10.462-6.376A81.868,81.868,0,0,1,339.583,3.47h0l1.934-.518h0A92.39,92.39,0,0,1,404.483,8.62h0l2.479,1.144h0c2.861,1.335,5.667,2.779,8.419,4.359h0l.817.49h0a56.727,56.727,0,0,1,10.3,7.82h0l1.035.981-1.553-.6h0a50.026,50.026,0,0,0-10.081-2.67h0l-1.771-.272-.79-.572h0" transform="translate(-228.012)"/>
      <path id="Path_254" data-name="Path 254" class="cls-2" d="M498.375,73.337A67.536,67.536,0,0,0,488.43,68.9,64.589,64.589,0,0,0,474.1,65.463,57.274,57.274,0,0,0,467.26,65c-2.207,0-4.414.082-6.648.272-2.125.191-4.223.817-6.348.817H454.1l3.106.817h0a39.388,39.388,0,0,1,7.3,2.752,36.474,36.474,0,0,1,5.395,3.27h0l1.335.954h0a75.045,75.045,0,0,1,5.912,4.741h0l.49.436h0a41.459,41.459,0,0,1,5.94,6.566c.163.218.327.463.49.708h0l2.806,4.005.109.054.763-2.152h0a35.072,35.072,0,0,1,5.367-9.945h0l.436-.572h0a17.472,17.472,0,0,1,3.515-3.433h0l1.308-.954h0" transform="translate(-330.377 -47.389)"/>
      <path id="Path_255" data-name="Path 255" class="cls-2" d="M485.158,40.339h0l-3.024.272h0a17.963,17.963,0,0,0-8.119,2.779h0l-2.4,1.5h0c-1.608-.926-3.133-1.934-4.741-2.861-1.689-.981-3.351-1.962-5.04-2.915a64.46,64.46,0,0,0-15.585-6.076h0l-3.46-.845h0a83.8,83.8,0,0,0-12.506-2.1,99.945,99.945,0,0,0-10.68-.381h0l-4.9.518h0c.272-.136.627-.191.926-.327a47.372,47.372,0,0,1,6.566-1.253,112,112,0,0,1,18.609-1.2,92.862,92.862,0,0,1,11.362.736,80.512,80.512,0,0,1,11.253,2.452h0l.381.109h0a81.771,81.771,0,0,1,13.3,5.258c.136.054.245.136.381.191h0l7.683,4.141" transform="translate(-301.712 -20.058)"/>
    </g>
  </g>
</svg>
