<svg xmlns="http://www.w3.org/2000/svg" viewBox="0 0 29.173 24.427">
  <defs>
    <style>
      .cls-1 {
        fill: #a1a6ab;
      }
    </style>
  </defs>
  <path id="Twitter_3_" class="cls-1" d="M136.661,25.067a10.82,10.82,0,0,1-3.812,1.478,6,6,0,0,0-4.356-1.945,6.077,6.077,0,0,0-5.99,6.146,8.573,8.573,0,0,0,.156,1.4,16.845,16.845,0,0,1-12.291-6.379,5.97,5.97,0,0,0-.778,3.112,6.479,6.479,0,0,0,2.645,5.134,5.53,5.53,0,0,1-2.723-.778v.078a6.029,6.029,0,0,0,4.823,5.99,5.016,5.016,0,0,1-1.556.233,4.783,4.783,0,0,1-1.089-.078,6.1,6.1,0,0,0,5.6,4.279,11.743,11.743,0,0,1-7.39,2.645,8.456,8.456,0,0,1-1.4-.078,16.755,16.755,0,0,0,9.18,2.723c10.969,0,17.037-9.335,17.037-17.426v-.778a11.572,11.572,0,0,0,2.956-3.19,10.677,10.677,0,0,1-3.423.934A7.656,7.656,0,0,0,136.661,25.067Z" transform="translate(-108.5 -24.6)"/>
</svg>
